<svg width="462" height="276" viewBox="0 0 462 276" fill="none" xmlns="http://www.w3.org/2000/svg">
  <g filter="url(#filter0_d)">
    <path fill-rule="evenodd" clip-rule="evenodd" d="M120.924 55.5031C118.77 55.7408 114.354 56.5822 111.11 57.3724C83.3952 64.1229 61.668 83.663 52.8273 109.788C49.6851 119.072 48.9538 123.895 49.0022 135C49.0496 145.774 49.8466 150.658 53.088 160.039C63.7967 191.028 93.5727 212.554 127.628 213.926C147.066 214.708 165.157 209.302 181.114 197.941C183.214 196.445 195.188 185.384 207.723 173.36L230.512 151.498L253.301 173.36C265.835 185.384 277.81 196.445 279.91 197.941C290.689 205.614 302.149 210.468 315.304 212.929C321.927 214.168 337.406 214.16 344.332 212.914C374.106 207.557 398.533 187.251 407.936 160.039C411.274 150.378 412 145.819 412 134.509C412 123.199 411.274 118.64 407.936 108.979C399.886 85.6821 380.445 66.9323 356.289 59.1681C330.471 50.87 302.112 55.1539 280.624 70.5978C278.356 72.2279 269.704 79.802 261.398 87.4287C250.283 97.6359 245.997 101.887 245.159 103.536C242.528 108.719 244.533 115.488 249.603 118.534C251.522 119.687 252.757 120.035 255.465 120.182C261.069 120.487 261.747 120.032 278.038 105.037C293.36 90.9326 297.164 87.9071 303.336 84.914C312.186 80.6222 319.942 78.8443 329.818 78.8443C346.104 78.8443 360.715 84.8938 371.836 96.241C382.206 106.821 387.535 119.811 387.535 134.509C387.535 149.207 382.206 162.197 371.836 172.777C360.683 184.156 346.129 190.187 329.818 190.187C317.491 190.187 306.582 186.93 296.716 180.304C294.674 178.933 272.625 158.1 239.169 125.929C205.925 93.9625 183.455 72.7279 181.114 71.0673C165.866 60.2506 148.609 54.7924 130.335 55.006C127.313 55.0414 123.078 55.2649 120.924 55.5031ZM143.386 79.9587C151.404 81.6527 159.301 85.1257 165.836 89.8329C167.657 91.1443 178.999 101.733 191.042 113.363L212.938 134.509L191.297 155.415C179.394 166.914 167.937 177.581 165.836 179.119C161.473 182.315 155.529 185.4 150.208 187.232C138.695 191.196 123.658 191.193 112.205 187.225C92.6596 180.453 78.6947 164.976 74.3899 145.314C73.1493 139.649 73.1493 129.369 74.3899 123.703C79.7326 99.3024 100.158 81.4936 125.859 78.8276C129.677 78.4312 139.005 79.0334 143.386 79.9587Z" fill="#9938FA" />
  </g>
  <defs>
    <filter id="filter0_d" x="0" y="0" width="462" height="276" filterUnits="userSpaceOnUse" color-interpolation-filters="sRGB">
      <feFlood flood-opacity="0" result="BackgroundImageFix" />
      <feColorMatrix in="SourceAlpha" type="matrix" values="0 0 0 0 0 0 0 0 0 0 0 0 0 0 0 0 0 0 127 0" />
      <feOffset dy="4" />
      <feGaussianBlur stdDeviation="2" />
      <feColorMatrix type="matrix" values="0 0 0 0 0 0 0 0 0 0 0 0 0 0 0 0 0 0 0.25 0" />
      <feBlend mode="normal" in2="BackgroundImageFix" result="effect1_dropShadow" />
      <feBlend mode="normal" in="SourceGraphic" in2="effect1_dropShadow" result="shape" />
    </filter>
  </defs>
</svg>